<svg width="18" height="18" viewBox="0 0 18 18" fill="none" xmlns="http://www.w3.org/2000/svg">
<path fill-rule="evenodd" clip-rule="evenodd" d="M2.25 2.25C2.25 1.85218 2.40804 1.47064 2.68934 1.18934C2.97064 0.908035 3.35218 0.75 3.75 0.75H11.2365C11.6343 0.750085 12.0158 0.908176 12.297 1.1895L15.3105 4.203C15.5918 4.48424 15.7499 4.86571 15.75 5.2635V15.75C15.75 16.1478 15.592 16.5294 15.3107 16.8107C15.0294 17.092 14.6478 17.25 14.25 17.25H3.5625C3.41332 17.25 3.27024 17.1907 3.16475 17.0852C3.05926 16.9798 3 16.8367 3 16.6875C3 16.5383 3.05926 16.3952 3.16475 16.2898C3.27024 16.1843 3.41332 16.125 3.5625 16.125H14.25C14.3495 16.125 14.4448 16.0855 14.5152 16.0152C14.5855 15.9448 14.625 15.8495 14.625 15.75V6.375H11.625C11.2272 6.375 10.8456 6.21696 10.5643 5.93566C10.283 5.65436 10.125 5.27282 10.125 4.875V1.875H3.75C3.65054 1.875 3.55516 1.91451 3.48484 1.98484C3.41451 2.05516 3.375 2.15054 3.375 2.25V6.9375C3.375 7.08668 3.31574 7.22976 3.21025 7.33525C3.10476 7.44074 2.96168 7.5 2.8125 7.5C2.66332 7.5 2.52024 7.44074 2.41475 7.33525C2.30926 7.22976 2.25 7.08668 2.25 6.9375V2.25ZM11.25 1.875V4.875C11.25 4.97446 11.2895 5.06984 11.3598 5.14016C11.4302 5.21049 11.5255 5.25 11.625 5.25H14.625C14.6217 5.15517 14.5826 5.06512 14.5155 4.998L11.502 1.9845C11.4349 1.91743 11.3448 1.8783 11.25 1.875Z" fill="#40464D"/>
<path d="M3.39745 9.17995C3.44774 9.23407 3.48687 9.29756 3.51261 9.3668C3.53835 9.43605 3.55021 9.50968 3.54749 9.58351C3.54477 9.65733 3.52754 9.7299 3.49678 9.79706C3.46602 9.86422 3.42233 9.92467 3.3682 9.97495L1.38895 11.8124L3.36895 13.6499C3.42312 13.7003 3.46685 13.7608 3.49764 13.828C3.52842 13.8952 3.54567 13.9679 3.54838 14.0418C3.5511 14.1157 3.53923 14.1894 3.51347 14.2587C3.4877 14.328 3.44853 14.3915 3.3982 14.4457C3.34787 14.4999 3.28737 14.5436 3.22014 14.5744C3.15291 14.6052 3.08028 14.6224 3.00638 14.6251C2.85715 14.6306 2.71185 14.5766 2.60245 14.4749L0.179951 12.2249C0.123155 12.1723 0.0778444 12.1085 0.0468582 12.0375C0.015872 11.9665 -0.00012207 11.8899 -0.00012207 11.8124C-0.00012207 11.735 0.015872 11.6584 0.0468582 11.5874C0.0778444 11.5164 0.123155 11.4526 0.179951 11.3999L2.60245 9.14995C2.65662 9.09971 2.72015 9.06064 2.78942 9.03496C2.85869 9.00928 2.93234 8.99749 3.00617 9.00028C3.07999 9.00306 3.15254 9.02036 3.21968 9.05119C3.28682 9.08202 3.34722 9.12577 3.39745 9.17995ZM6.3817 9.97495C6.32753 9.92472 6.28379 9.86431 6.25296 9.79717C6.22214 9.73004 6.20484 9.65748 6.20205 9.58366C6.19643 9.43457 6.25026 9.28935 6.3517 9.17995C6.45315 9.07055 6.5939 9.00592 6.74299 9.0003C6.89208 8.99467 7.0373 9.0485 7.1467 9.14995L9.56995 11.3999C9.62675 11.4526 9.67206 11.5164 9.70305 11.5874C9.73403 11.6584 9.75003 11.735 9.75003 11.8124C9.75003 11.8899 9.73403 11.9665 9.70305 12.0375C9.67206 12.1085 9.62675 12.1723 9.56995 12.2249L7.14745 14.4749C7.03805 14.5765 6.89279 14.6304 6.74363 14.6249C6.59447 14.6193 6.45362 14.5547 6.35208 14.4453C6.25053 14.3359 6.19661 14.1907 6.20216 14.0415C6.20772 13.8923 6.2723 13.7515 6.3817 13.6499L8.36095 11.8124L6.38095 9.97495H6.3817Z" fill="#40464D"/>
</g>
</svg>
